# Blender v2.79 (sub 0) OBJ File: ''
# www.blender.org
mtllib Star.mtl
o Circle
v 0.000000 0.000000 -1.000000
v -0.226259 0.000000 -0.311418
v -0.951057 0.000000 -0.309017
v -0.366094 0.000000 0.118951
v -0.587785 0.000000 0.809017
v 0.000000 0.000000 0.384934
v 0.587785 0.000000 0.809017
v 0.366094 0.000000 0.118951
v 0.951056 0.000000 -0.309017
v 0.226258 0.000000 -0.311418
v 0.000000 0.000000 -1.000000
v -0.226259 0.000000 -0.311418
v -0.951057 0.000000 -0.309017
v -0.366094 0.000000 0.118951
v -0.587785 0.000000 0.809017
v 0.000000 0.000000 0.384934
v 0.587785 0.000000 0.809017
v 0.366094 0.000000 0.118951
v 0.951056 0.000000 -0.309017
v 0.226258 0.000000 -0.311418
v 0.000000 0.268973 -1.000000
v -0.226259 0.268973 -0.311418
v -0.951057 0.268973 -0.309017
v -0.366094 0.268973 0.118951
v -0.587785 0.268973 0.809017
v 0.000000 0.268973 0.384934
v 0.587785 0.268973 0.809017
v 0.366094 0.268973 0.118951
v 0.951056 0.268973 -0.309017
v 0.226258 0.268973 -0.311418
vn 0.0000 -1.0000 0.0000
vn 0.9500 0.0000 -0.3122
vn 0.0000 0.0000 1.0000
vn 0.0000 1.0000 -0.0000
vn 0.9521 0.0000 -0.3059
vn -0.9521 0.0000 -0.3059
vn -0.9500 0.0000 -0.3122
vn 0.5905 0.0000 0.8071
vn 0.5851 0.0000 0.8110
vn -0.0033 0.0000 -1.0000
vn 0.0033 0.0000 -1.0000
vn -0.5851 0.0000 0.8110
vn -0.5905 0.0000 0.8071
usemtl None
s off
f 2//1 1//1 10//1 9//1 8//1 7//1 6//1 5//1 4//1 3//1
f 20//2 11//2 21//2 30//2
f 3//3 4//3 14//3 13//3
f 10//3 1//3 11//3 20//3
f 7//3 8//3 18//3 17//3
f 4//3 5//3 15//3 14//3
f 1//3 2//3 12//3 11//3
f 8//3 9//3 19//3 18//3
f 5//3 6//3 16//3 15//3
f 2//3 3//3 13//3 12//3
f 9//3 10//3 20//3 19//3
f 6//3 7//3 17//3 16//3
f 22//4 23//4 24//4 25//4 26//4 27//4 28//4 29//4 30//4 21//4
f 17//5 18//5 28//5 27//5
f 14//6 15//6 25//6 24//6
f 11//7 12//7 22//7 21//7
f 18//8 19//8 29//8 28//8
f 15//9 16//9 26//9 25//9
f 12//10 13//10 23//10 22//10
f 19//11 20//11 30//11 29//11
f 16//12 17//12 27//12 26//12
f 13//13 14//13 24//13 23//13
